<svg width="600" height="400" id="bipartiteGraph">
<line class="edge" x1="100" y1="80" x2="400" y2="80" id="edge-A-1"/>
<line class="edge" x1="100" y1="80" x2="400" y2="160" id="edge-A-2"/>
<line class="edge" x1="100" y1="160" x2="400" y2="160" id="edge-B-2"/>
<line class="edge" x1="100" y1="160" x2="400" y2="240" id="edge-B-3"/>
<line class="edge" x1="100" y1="240" x2="400" y2="80" id="edge-C-1"/>
<line class="edge" x1="100" y1="240" x2="400" y2="240" id="edge-C-3"/>
<g>
<circle cx="100" cy="80" r="20" class="node-le<svg width="600" height="400" id="bipartiteGraph">
<line class="edge" x1="100" y1="80" x2="400" y2="80" id="edge-A-1"/>
<line class="edge" x1="100" y1="80" x2="400" y2="160" id="edge-A-2"/>
<line class="edge" x1="100" y1="160" x2="400" y2="160" id="edge-B-2"/>
<line class="edge" x1="100" y1="160" x2="400" y2="240" id="edge-B-3"/>
<line class="edge" x1="100" y1="240" x2="400" y2="80" id="edge-C-1"/>
<line class="edge" x1="100" y1="240" x2="400" y2="240" id="edge-C-3"/>
<g>
<circle cx="100" cy="80" r="20" class="node-left" id="node-A"/>
<text x="100" y="85" class="node-text" text-anchor="middle">A</text>
</g>
<g>
<circle cx="100" cy="160" r="20" class="node-left" id="node-B"/>
<text x="100" y="165" class="node-text" text-anchor="middle">B</text>
</g>
<g>
<circle cx="100" cy="240" r="20" class="node-left" id="node-C"/>
<text x="100" y="245" class="node-text" text-anchor="middle">C</text>
</g>
<g>
<circle cx="400" cy="80" r="20" class="node-right" id="node-1"/>
<text x="400" y="85" class="node-text" text-anchor="middle">1</text>
</g>
<g>
<circle cx="400" cy="160" r="20" class="node-right" id="node-2"/>
<text x="400" y="165" class="node-text" text-anchor="middle">2</text>
</g>
<g>
<circle cx="400" cy="240" r="20" class="node-right" id="node-3"/>
<text x="400" y="245" class="node-text" text-anchor="middle">3</text>
</g>
</svg>ft" id="node-A"/>
<text x="100" y="85" class="node-text" text-anchor="middle">A</text>
</g>
<g>
<circle cx="100" cy="160" r="20" class="node-left" id="node-B"/>
<text x="100" y="165" class="node-text" text-anchor="middle">B</text>
</g>
<g>
<circle cx="100" cy="240" r="20" class="node-left" id="node-C"/>
<text x="100" y="245" class="node-text" text-anchor="middle">C</text>
</g>
<g>
<circle cx="400" cy="80" r="20" class="node-right" id="node-1"/>
<text x="400" y="85" class="node-text" text-anchor="middle">1</text>
</g>
<g>
<circle cx="400" cy="160" r="20" class="node-right" id="node-2"/>
<text x="400" y="165" class="node-text" text-anchor="middle">2</text>
</g>
<g>
<circle cx="400" cy="240" r="20" class="node-right" id="node-3"/>
<text x="400" y="245" class="node-text" text-anchor="middle">3</text>
</g>
</svg>
